<svg width="60" height="494" viewBox="0 0 60 494" fill="none" xmlns="http://www.w3.org/2000/svg">
<g id="left_lower_limb">
<g id="FEM_L">
<path id="Vector" d="M26.1793 18.5313C25.8803 19.7193 24.5302 21.3373 23.6232 22.1993C22.5132 23.2573 21.1782 24.2893 19.7272 24.7803" stroke="black" stroke-width="0.25"/>
<path id="Vector_2" d="M12.1682 15.7083C12.8262 16.2073 13.6322 16.1523 14.3112 16.6323C15.0182 17.1333 15.4562 17.9573 16.1002 18.5313" stroke="black" stroke-width="0.25"/>
<path id="Vector_3" d="M19.6273 15.7083C21.2783 15.8383 22.4452 19.3823 22.4492 20.7483" stroke="black" stroke-width="0.25"/>
<path id="Vector_4" d="M35.5942 133.556C35.4782 133.458 35.3642 133.354 35.2512 133.241C34.4442 132.434 32.1262 127.799 31.6232 125.782C31.1192 123.766 29.2022 108.645 28.6992 95.6423C28.1962 82.6393 29.4042 62.6813 29.4042 62.6813L30.5132 49.7793L31.0172 36.3733C31.0172 36.3733 31.7232 30.2243 32.1262 28.5113C32.5282 26.7983 33.7382 24.3783 34.0402 23.7733C34.3882 23.0793 34.7602 22.3963 35.1232 21.7103C35.2902 21.3963 35.6492 20.9533 35.7122 20.6033C35.8362 19.9043 35.2122 20.3543 34.8192 20.4823C34.4902 20.5893 34.0013 20.5293 33.6503 20.5163C32.9173 20.4883 32.4362 20.1713 31.9712 19.5833C31.0292 18.3913 30.6062 16.7613 29.1702 16.1413C28.4842 15.8453 27.7473 15.6623 27.0983 15.2873C26.0753 14.6963 25.2992 13.6563 24.6102 12.6393C24.4142 12.3473 24.2222 12.0573 24.0362 11.7813C23.6512 11.2133 23.0522 10.4443 22.2302 10.8033C21.5882 11.0833 21.3383 11.8733 20.8093 12.3023C20.1163 12.8643 19.3252 13.1453 18.4872 13.4093C17.5372 13.7093 16.5522 13.7123 15.5912 13.9443C14.6172 14.1793 13.7012 14.3973 12.6952 14.4953C11.9262 14.5703 10.5442 14.7173 10.5572 15.7473C10.5592 15.9513 11.7632 16.3393 12.5442 16.6003C12.8322 16.6973 13.0632 16.7763 13.1532 16.8223C13.9762 17.2413 14.5492 18.0103 15.0902 18.7323C16.2992 20.3443 17.5082 22.1593 17.9112 23.2673C18.3142 24.3763 18.5153 25.7883 18.3143 26.2913C18.1923 26.5973 17.9602 26.6433 17.7502 26.7893L19.2712 32.6543C19.7792 33.1513 20.2313 33.5503 20.2313 33.5503C20.2313 33.5503 20.9362 35.2643 20.9362 38.9933C20.9362 42.7223 20.8353 55.0203 20.8353 55.0203C20.8353 55.0203 20.1292 66.8133 20.1292 68.1243C20.1292 69.4353 19.5253 85.4623 19.5253 86.0663C19.5253 86.6713 19.3232 110.158 19.4242 111.065C19.5252 111.972 19.0212 123.867 18.8202 124.875C18.6182 125.882 16.8032 131.931 16.4002 132.435C16.0442 132.881 14.9792 133.956 14.2502 134.27L35.5942 133.556Z" stroke="black" stroke-width="0.25"/>
<path id="Vector_5" d="M16.6792 27.1163C16.5422 27.2113 16.4162 27.3483 16.3362 27.6273C16.1352 28.3333 16.4372 30.7523 16.9412 31.5583C17.1862 31.9503 17.7172 32.5103 18.1992 32.9803L16.6792 27.1163Z" stroke="black" stroke-width="0.25"/>
<path id="Vector_6" d="M20.2703 32.5013C21.4703 33.1253 21.5642 35.3053 21.7822 36.7353" stroke="black" stroke-width="0.25"/>
<g id="FEM_L4">
<path id="Vector_7" d="M14.2512 136.508C14.1542 136.549 14.0642 136.577 13.9822 136.59C13.2772 136.69 11.8652 140.017 11.8652 141.025C11.8652 142.034 12.1682 144.251 12.2672 145.36C12.3692 146.467 13.0752 147.98 13.1752 148.686C13.2772 149.391 13.1752 151.206 13.4782 151.407C13.7802 151.61 14.4862 152.618 17.2072 152.113C19.9292 151.61 20.7353 150.904 21.5413 150.6C22.3493 150.299 24.1623 148.787 24.6663 148.787C25.1703 148.787 27.2872 148.384 28.1952 148.787C29.1012 149.19 31.7212 150.3 31.7212 150.3C31.7212 150.3 37.8702 150.198 38.6772 149.291C39.4842 148.384 40.3903 145.764 40.3903 145.259C40.3903 144.755 39.7862 142.437 39.5832 142.134C39.3822 141.832 38.9792 140.219 38.9792 140.219C38.9792 140.219 38.5763 137.698 37.7703 137.196C37.0763 136.761 36.3072 136.403 35.5922 135.798L14.2512 136.508Z" stroke="black" stroke-width="0.25"/>
<path id="Vector_8" d="M37.8722 148.787C36.6382 148.812 35.1762 145.964 34.5482 145.032C33.6252 143.659 32.9463 141.729 31.4213 140.947C29.6823 140.055 28.2852 140.999 26.7612 141.731C25.3152 142.426 23.7832 141.952 22.3462 142.512C21.6482 142.783 20.9362 142.975 20.2542 143.369C18.5692 144.341 18.0152 146.058 17.4692 147.781C17.0842 148.996 16.6322 151.094 15.2932 151.609" stroke="black" stroke-width="0.25"/>
</g>
<g id="FEM_L2">
<path id="Vector_9" d="M21.1102 9.35927C20.9842 9.53527 20.8682 9.69127 20.7822 9.81527C20.1462 10.7243 19.1052 11.3593 18.1482 11.8863C17.2282 12.3933 15.8722 12.6333 14.8262 12.7883C13.5072 12.9833 12.1742 13.1193 10.8812 13.4583C10.2522 13.6233 9.62122 13.8293 9.05022 14.1453C8.80822 14.2783 8.47923 14.4433 8.30123 14.6633C8.05223 14.9713 8.18923 15.6753 7.64223 15.3073C6.93423 14.8293 6.37124 13.7693 5.85424 12.9943C4.84524 11.4823 4.64422 8.05526 4.64422 7.55126C4.64422 7.04726 5.45124 5.73727 5.65224 5.23327C5.85424 4.72927 5.85424 3.52026 7.16424 2.31026C8.47624 1.10126 10.4912 0.79827 12.1032 0.29427C13.7152 -0.20973 15.4293 0.496265 17.2443 1.30227C19.0583 2.10927 21.6803 6.74525 21.8823 7.14925C22.1823 7.75125 21.5792 8.69827 21.1102 9.35927Z" stroke="black" stroke-width="0.25"/>
<path id="Vector_10" d="M8.52224 3.24426C11.2752 2.62526 7.53023 7.79628 6.60723 6.26828" stroke="black" stroke-width="0.25"/>
</g>
<g id="FEM_L3">
<path id="Vector_11" d="M28.3072 9.99729C29.1042 9.96929 29.6652 9.87229 29.7212 10.7863C29.7552 11.3533 29.0332 12.2683 28.6102 12.6183" stroke="black" stroke-width="0.25"/>
<path id="Vector_12" d="M27.9672 10.5043C27.9972 11.4123 27.1862 11.8183 27.0292 12.6033C26.9202 13.1543 27.4382 13.3843 27.8322 13.6403C28.1452 13.8443 28.6072 14.2443 28.9922 14.2383L29.7192 14.4313C30.4622 15.0233 31.1402 15.3333 31.7372 16.0463C32.2062 16.6073 32.4942 17.2493 32.8672 17.8593C33.7452 19.2963 34.7212 19.8683 36.2712 18.9673L37.0282 19.0493C37.1222 18.8733 37.1782 18.7663 37.1782 18.7663C37.1782 18.7663 37.6822 15.9433 37.3792 15.1383C37.0772 14.3313 35.7672 11.8113 35.5652 11.5093C35.5652 11.5093 34.3562 9.59429 34.0532 9.49329C33.7502 9.39229 33.1462 8.18229 33.1462 8.18229C33.1462 8.18229 31.9372 6.36828 31.1302 6.46928C30.3232 6.57028 29.0142 6.97327 28.4082 7.47727C27.8042 7.98127 27.2992 9.39228 27.2992 9.39228L27.7022 9.99729L27.9672 10.5043Z" stroke="black" stroke-width="0.25"/>
</g>
</g>
<g id="TIB_L">
<path id="Vector_13" d="M28.2072 319.391C27.7532 318.315 27.0752 316.659 27.0242 316.26C26.9492 315.655 26.8742 312.858 26.7982 308.549C26.7222 304.238 26.5702 295.772 26.5702 295.242C26.5702 294.712 26.1172 271.957 26.1172 271.957L25.6633 254.721C25.6633 254.721 25.5873 248.672 25.7393 247.086C25.8903 245.498 26.6453 229.621 26.6453 229.621L27.4012 212.914C27.4012 212.914 28.3093 206.562 29.1403 204.976C29.9723 203.388 30.0472 202.179 31.4092 200.968C32.2042 200.261 31.6172 199.876 30.8442 199.409C30.2122 199.026 29.3702 198.552 28.6572 198.421C27.6722 198.239 26.5992 198.353 25.5962 198.194C23.0212 197.79 20.4502 197.497 17.8412 197.497C16.1292 197.497 14.3712 197.532 12.7182 197.917C11.7472 198.144 11.2272 198.497 10.4342 199.013C10.7262 199.226 11.0042 199.468 11.2232 199.759C11.9032 200.665 13.1142 202.405 13.3402 203.161C13.5672 203.915 14.9272 211.778 15.1532 215.257C15.3792 218.736 15.9842 234.837 15.9842 234.837L17.0442 254.191C17.0442 254.191 18.7072 287.002 18.5552 288.74C18.4062 290.478 17.8002 298.72 17.6492 299.779C17.4982 300.838 15.9112 309.228 15.2302 311.041C14.5492 312.857 12.8102 316.184 12.1302 317.09C11.9572 317.32 11.7272 317.686 11.4752 318.104" stroke="black" stroke-width="0.25"/>
<path id="Vector_14" d="M24.9592 211.831C24.9592 211.831 21.1273 216.87 21.3303 227.558C21.5313 238.242 22.7412 250.538 22.7412 250.538C22.7412 250.538 22.9423 270.093 22.9423 271.909C22.9423 273.722 22.3382 289.448 21.7322 292.27C21.1282 295.092 21.3302 303.76 18.3052 310.211C15.2822 316.662 15.2822 316.662 15.2822 316.662" stroke="black" stroke-width="0.25"/>
<path id="Vector_15" d="M28.0673 319.391L27.8422 319.649C27.3812 319.936 27.1122 320.442 26.7222 320.838L26.3303 321.047C25.7433 321.658 24.5392 321.772 23.7092 321.803C22.8212 321.838 21.8632 321.918 20.9902 321.854C19.8972 321.774 18.8952 321.34 17.9102 320.983C17.4522 320.817 16.8842 320.754 16.5402 320.407C16.2092 320.073 16.1842 319.546 15.8482 319.233L15.3122 318.948C15.1552 318.456 14.2022 318.018 13.7022 317.969C13.0462 317.905 12.6162 318.338 11.9522 318.248L11.3382 318.103" stroke="black" stroke-width="0.25"/>
<g id="TIB_L3">
<path id="Vector_16" d="M22.4393 326.665C22.0003 326.692 21.6932 326.364 21.3192 326.224C20.9292 326.078 20.5302 325.995 20.1092 325.96C19.5722 325.915 19.0423 325.829 18.5073 325.858C18.0333 325.885 17.5252 326.083 17.0462 326.01C16.6062 325.94 16.3742 325.586 16.0122 325.34C15.6262 325.078 15.2602 324.918 14.7822 324.85C13.9842 324.733 13.1012 324.68 12.3122 324.877C11.3582 325.117 10.8692 326.053 10.5052 326.916C10.3562 327.268 10.2052 327.922 9.78823 328.076" stroke="black" stroke-width="0.25"/>
<path id="Vector_17" d="M14.7773 326.11C13.8323 326.114 12.3633 326.38 11.7903 327.157C11.2783 327.85 10.6272 329.329 10.7452 330.192" stroke="black" stroke-width="0.25"/>
<path id="Vector_18" d="M11.4772 320.346C10.7312 321.584 9.78824 323.299 9.56224 323.412C9.25924 323.564 8.95823 324.85 8.80623 326.512C8.65523 328.176 9.25921 328.026 9.33421 328.479C9.41021 328.932 9.56222 329.538 9.78822 329.991C10.0152 330.446 11.1492 330.596 11.1492 330.596L13.1892 328.1L14.2482 327.799C14.7052 327.666 14.8772 326.576 15.3112 326.361C15.9212 326.058 17.0043 327.004 17.5773 327.193C18.0303 327.345 19.7682 326.966 20.2972 327.117C20.8272 327.269 21.6582 327.799 22.2632 327.721C22.8672 327.647 23.5492 327.346 24.1542 327.27C24.7592 327.194 25.8932 327.42 26.1202 327.194C26.3472 326.968 28.0862 324.85 28.1602 324.471C28.2362 324.094 28.3122 323.112 28.3122 323.112L28.6132 322.581C28.6132 322.581 28.4412 322.183 28.2092 321.632L27.9842 321.89C27.5232 322.177 27.2532 322.683 26.8632 323.079L26.4722 323.288C25.8842 323.897 24.6802 324.011 23.8512 324.044C22.9622 324.079 22.0032 324.159 21.1322 324.095C20.0392 324.015 19.0363 323.581 18.0513 323.224C17.5933 323.058 17.0262 322.995 16.6802 322.648C16.3512 322.316 16.3262 321.785 15.9882 321.474L15.4532 321.189C15.2962 320.697 14.3442 320.259 13.8442 320.209C13.1872 320.146 12.7572 320.578 12.0942 320.49L11.4772 320.346Z" stroke="black" stroke-width="0.25"/>
</g>
<g id="TIB_L2">
<path id="Vector_19" d="M37.3823 178.567C35.8483 178.565 34.4702 179.018 32.9182 178.946C30.6932 178.841 28.5882 177.948 26.4202 177.811" stroke="black" stroke-width="0.25"/>
<path id="Vector_20" d="M18.8602 177.358C18.3322 177.835 16.8572 177.737 16.1382 177.811C15.1312 177.913 14.0992 177.993 13.0752 177.944C11.8972 177.891 10.5692 177.729 9.41323 177.96C8.61923 178.12 7.90722 178.605 7.21822 179.097" stroke="black" stroke-width="0.25"/>
<path id="Vector_21" d="M20.3662 185.061C21.8592 185.014 23.6263 185.823 24.8823 186.59C26.5803 187.627 26.5673 188.752 26.5673 190.58" stroke="black" stroke-width="0.25"/>
<path id="Vector_22" d="M11.3922 189.028C13.0152 188.491 15.7373 188.987 17.2883 189.464C19.3413 190.091 20.3252 191.548 21.2942 193.3C21.5492 193.761 21.7392 194.468 22.0312 194.909C22.4112 195.481 23.0802 195.554 23.7482 195.624C24.3422 195.688 25.0062 195.788 25.5282 195.472C26.1342 195.105 26.0493 194.343 26.3223 193.718C26.7463 192.738 27.7682 191.208 28.6082 190.515C29.2232 190.007 32.0952 188.949 32.7422 189.308L32.9762 189.132C33.2492 188.773 33.4333 188.546 33.6033 188.546C33.9803 188.546 34.2833 187.866 34.2833 187.866C34.2833 187.866 34.3592 186.884 34.9642 186.354C35.5692 185.825 36.1742 185.672 36.4762 185.522C36.7792 185.37 38.0632 184.387 38.1402 183.631C38.2142 182.877 38.2142 178.49 37.3832 178.19C36.5512 177.885 34.2082 177.131 32.2422 177.131C30.2762 177.131 28.6122 176.526 27.8582 176.902C27.1002 177.281 24.6822 174.634 23.3972 174.861C22.1122 175.088 22.7922 175.011 22.7922 175.39C22.7922 175.767 21.6582 175.995 21.2052 175.995C20.7512 175.995 17.7262 174.86 17.7262 174.86C17.7262 174.86 17.1982 175.465 16.8952 175.54C16.5922 175.616 15.9872 175.39 15.9872 175.39C15.9872 175.39 9.78922 177.357 9.18422 177.658C8.57922 177.961 5.47922 179.851 5.55422 180.381C5.63022 180.91 7.36922 184.387 7.52022 184.69C7.67122 184.993 9.25923 187.94 9.48723 188.319C9.62723 188.553 9.99924 188.671 10.4242 188.944L11.3922 189.028Z" stroke="black" stroke-width="0.25"/>
</g>
</g>
<g id="FIB_L">
<path id="Vector_23" d="M54.2802 314.973C53.7832 314.264 53.3743 313.368 53.1893 312.077C52.8873 309.96 52.4332 303.458 52.1312 299.073C51.8282 294.688 51.5272 290.606 51.5272 288.641C51.5272 286.674 52.2832 279.416 52.1312 277.754C51.9802 276.09 51.8282 260.668 51.9802 257.645C52.1312 254.62 51.8292 239.5 51.8292 236.477C51.8292 233.452 51.3762 226.649 51.6782 224.229C51.9812 221.809 51.6782 215.157 51.6782 215.157C51.6782 215.157 51.0742 210.772 51.8292 206.841C52.5842 202.91 53.9462 197.921 53.9462 197.921C53.9462 197.921 55.0042 194.898 55.6092 194.442L48.2012 192.932C48.2012 194.141 48.2012 197.92 48.2012 200.791C48.2012 203.666 47.1422 213.191 47.1422 213.191C47.1422 213.191 46.6882 238.291 46.6882 239.5C46.6882 240.709 46.8392 261.576 46.8392 262.029C46.8392 262.482 46.8392 282.592 46.6882 283.045C46.5372 283.498 46.3862 299.83 46.5372 301.34C46.6882 302.854 46.9913 310.867 46.8403 311.471C46.7763 311.729 46.5462 313.086 46.2932 314.604L54.2802 314.973Z" stroke="black" stroke-width="0.25"/>
<path id="Vector_24" d="M47.8982 238.139C47.8982 238.139 49.1082 268.379 49.4112 271.102C49.7142 273.823 50.0152 283.198 49.7142 289.245" stroke="black" stroke-width="0.25"/>
<g id="FIB_L3">
<path id="Vector_25" d="M46.2932 316.284C45.9512 318.329 45.5643 320.667 45.4793 321.014C45.3283 321.619 46.2363 322.828 46.3873 323.432C46.5373 324.037 45.9323 324.491 45.9323 326.155C45.9323 327.817 46.5373 329.028 47.5963 329.632C48.6553 330.237 49.5623 330.388 50.0153 329.784C50.4693 329.18 51.0742 328.725 51.6782 328.575C52.2832 328.423 53.9473 327.214 53.9473 327.214C53.9473 327.214 56.3663 322.829 56.2153 321.62C56.0653 320.409 56.2152 318.747 55.3082 317.839C54.9542 317.485 54.6012 317.109 54.2822 316.653L46.2932 316.284Z" stroke="black" stroke-width="0.25"/>
<path id="Vector_26" d="M55.7603 321.014C54.5833 320.799 53.6482 319.899 52.2872 320.287C51.2652 320.58 50.0682 321.558 49.2662 322.252C48.1342 323.232 48.3922 324.688 49.6002 325.492C50.6012 326.158 52.1072 326.222 53.2902 326.406" stroke="black" stroke-width="0.25"/>
<path id="Vector_27" d="M48.7553 325.046C48.2483 324.343 48.1293 325.364 48.3153 325.751C48.5263 326.194 48.8582 326.603 49.1812 326.972C49.4772 327.31 49.9673 327.952 50.4733 327.808C50.8323 327.706 51.1653 327.085 51.3263 326.812" stroke="black" stroke-width="0.25"/>
</g>
<g id="FIB_L2">
<path id="Vector_28" d="M56.1702 192.762C56.7742 192.309 57.6822 191.856 57.6822 191.856C57.6822 191.856 59.4952 188.227 58.2872 186.563C57.0762 184.901 57.0763 185.051 55.7153 184.295C54.3553 183.539 52.3902 181.877 51.6342 181.877C50.8772 181.877 50.1212 182.33 49.8202 183.69C49.5172 185.051 48.7602 190.042 48.7602 191.251L56.1702 192.762Z" stroke="black" stroke-width="0.25"/>
<path id="Vector_29" d="M57.2283 185.657C57.5173 188.136 51.0142 185.893 50.4242 183.993" stroke="black" stroke-width="0.25"/>
</g>
</g>
<g id="PAT_L">
<path id="Vector_30" d="M38.1903 162.987C38.1903 162.987 39.1592 158.995 38.0092 157.665C36.8612 156.333 35.9523 156.333 35.5903 155.851C35.2273 155.367 34.1982 154.158 33.7762 153.855C33.3522 153.552 33.2313 153.371 30.3283 153.007C27.4253 152.646 25.5502 152.464 24.7042 152.646C23.8572 152.828 21.8013 153.734 21.3173 154.158C20.8333 154.582 19.0803 156.094 18.7163 157C18.3533 157.907 17.9903 159.057 17.8093 159.541C17.6273 160.024 16.4793 162.988 19.2603 165.467C22.0423 167.949 22.7072 167.766 22.7072 167.766C22.7072 167.766 22.8892 168.432 23.3732 168.856C24.1462 169.532 25.3523 169.907 26.2753 170.327C27.4283 170.854 28.6442 171.473 29.9042 170.899C30.5642 170.596 31.1152 170.133 31.6422 169.686C32.9362 168.59 34.1422 167.338 35.3472 166.133C36.6782 164.801 38.1303 163.288 38.1903 162.987Z" stroke="black" stroke-width="0.25"/>
<path id="Vector_31" d="M30.8722 156.817C30.8722 156.817 29.9042 164.075 30.6312 166.01" stroke="black" stroke-width="0.25"/>
<path id="Vector_32" d="M24.3403 156.817C24.3403 156.817 23.1313 163.349 23.6153 164.559" stroke="black" stroke-width="0.25"/>
<path id="Vector_33" d="M26.5183 155.85C26.5183 155.85 26.2763 164.801 26.5183 167.704" stroke="black" stroke-width="0.25"/>
</g>
<g id="TAL_L">
<path id="Vector_34" d="M21.5142 371.612C22.1432 371.413 22.8423 371.245 23.3273 370.764C23.4513 370.643 23.5222 370.6 23.6552 370.514C23.7612 370.444 23.8422 370.401 23.9182 370.293C24.0632 370.09 24.1052 369.824 24.2012 369.596C24.3312 369.293 24.2602 368.985 24.2422 368.668C24.2252 368.348 24.2632 368.029 24.2842 367.711C24.3332 367.004 24.3772 366.291 24.5592 365.606C24.7542 364.877 25.4092 364.413 25.6732 363.747C25.9182 363.126 26.0712 362.233 26.1282 361.565C26.1822 360.934 26.4422 359.667 26.3102 359.112C26.1232 358.339 25.1532 358.11 24.4702 357.932C23.0792 357.569 22.0382 356.471 20.8422 355.598C19.6042 354.696 18.3742 353.772 17.1662 352.832C16.1192 352.018 16.1432 352.285 15.5292 353.057C15.0912 353.608 14.4622 353.793 13.8082 354.057C13.5142 354.176 13.2872 354.37 12.9672 354.399C12.4502 354.446 12.2712 354.11 11.8772 354.059C11.1762 353.967 11.1122 354.282 10.4982 354.832C9.74822 355.502 9.57822 355.666 9.52022 356.686C9.46922 357.577 9.32922 358.416 9.24822 359.297C9.18122 360.026 9.07421 360.815 9.15721 361.565C9.23521 362.258 9.64524 362.846 9.77324 363.491C9.94824 364.378 9.43223 364.665 9.08623 365.376C8.78523 365.997 8.74323 366.708 8.61723 367.37C8.40023 368.518 8.17224 369.643 8.77324 370.718C9.03724 371.185 9.64322 371.476 9.76122 371.956C9.88422 372.456 9.60823 373.026 9.69923 373.542C9.84723 374.356 10.3052 375.646 10.9232 376.216C12.0162 377.222 13.4152 377.652 14.8702 377.724C15.9482 377.779 17.2132 377.896 18.2072 377.369C19.0222 376.935 19.1592 375.855 19.4202 375.049C19.5582 374.621 19.6582 374.154 19.8162 373.723C19.9832 373.268 20.0153 372.553 20.3013 372.215C20.5803 371.885 21.1232 371.737 21.5142 371.612Z" stroke="black" stroke-width="0.25"/>
<path id="Vector_35" d="M23.5842 370.047C23.6682 369.182 23.3993 368.229 23.3563 367.361C23.3363 366.951 23.4272 366.562 23.3662 366.172C23.2912 365.682 23.1192 365.197 22.9932 364.719C22.6232 363.319 21.8522 362.031 21.2272 360.731C20.7692 359.78 20.3713 358.917 19.7263 358.073C19.2663 357.469 19.1272 356.372 18.5472 355.893C17.9722 355.422 16.8413 355.405 16.1003 355.397C14.3943 355.376 12.6643 356.055 11.3933 357.176C9.99325 358.412 9.95424 360.26 10.1112 362.063C10.1522 362.542 10.2902 363.049 10.2952 363.526C10.2982 363.987 10.1043 364.399 9.94025 364.821C9.65025 365.567 9.45824 366.268 9.34024 367.053C9.10624 368.643 9.31226 370.299 10.0233 371.768C10.3073 372.354 10.8382 373.057 11.5732 373.176C12.1502 373.27 12.5542 372.758 12.8902 372.362C13.2362 371.956 13.5982 371.708 14.0732 371.454C15.6392 370.612 17.6713 371.05 19.2213 371.602C19.9633 371.866 20.6403 371.799 21.3673 371.522C22.0503 371.26 22.7862 370.905 23.3002 370.364C23.4022 370.259 23.4792 370.163 23.5392 370.048" stroke="black" stroke-width="0.25"/>
<path id="Vector_36" d="M10.9052 361.475C10.9592 362.416 11.1462 363.338 11.2222 364.286C11.2712 364.882 11.3132 365.479 11.3132 366.097C11.3132 366.675 11.3842 367.255 11.3592 367.827C11.3172 368.739 11.1562 369.667 11.2352 370.581C11.2932 371.269 11.2512 372.003 10.7912 372.565" stroke="black" stroke-width="0.25"/>
<path id="Vector_37" d="M13.8992 371.069C13.3192 371.467 12.3782 371.065 11.7682 370.977" stroke="black" stroke-width="0.25"/>
<path id="Vector_38" d="M15.3972 353.831C15.6262 353.999 15.9632 354.222 15.9912 354.519C16.0262 354.892 15.3772 354.949 15.0792 354.921" stroke="black" stroke-width="0.25"/>
<path id="Vector_39" d="M11.6312 354.489C11.9572 354.509 12.3212 355.094 12.5382 355.307" stroke="black" stroke-width="0.25"/>
<path id="Vector_40" d="M25.2842 358.661C24.7032 358.643 24.0952 358.276 23.5882 358.026C23.0382 357.756 22.5563 357.448 22.0383 357.116C21.4163 356.72 20.8072 356.315 20.2092 355.889C19.7292 355.547 19.1692 355.223 18.7302 354.852" stroke="black" stroke-width="0.25"/>
<path id="Vector_41" d="M18.3212 376.987C17.7412 376.938 17.1792 376.774 16.5762 376.805C15.8572 376.844 15.1232 376.969 14.4002 376.942C14.0762 376.93 13.8792 376.811 13.5992 376.661C13.2232 376.456 12.8442 376.282 12.4532 376.104C11.8342 375.823 10.8872 375.565 10.5052 374.963C10.2782 374.604 10.4142 374.197 10.0952 373.871" stroke="black" stroke-width="0.25"/>
<path id="Vector_42" d="M16.6892 373.631C16.7052 373.633 16.6922 373.67 16.7292 373.651C16.7752 373.559 16.7882 373.34 16.6392 373.397C16.4992 373.452 16.5722 373.655 16.7122 373.653" stroke="black" stroke-width="0.25"/>
<path id="Vector_43" d="M15.1922 374.561C15.1862 374.342 14.8722 374.213 14.8232 374.471C14.7892 374.659 15.0722 374.694 15.1702 374.674" stroke="black" stroke-width="0.25"/>
<path id="Vector_44" d="M14.9422 372.61C15.0142 372.561 15.0442 372.479 15.0302 372.387C14.5052 372.209 14.7222 372.774 14.9212 372.588" stroke="black" stroke-width="0.25"/>
<path id="Vector_45" d="M9.73423 359.54C9.73423 360.419 9.61423 361.392 9.73423 362.261C9.86623 363.21 10.2832 363.79 9.85423 364.741" stroke="black" stroke-width="0.25"/>
</g>
<g id="CUB_L">
<path id="Vector_46" d="M49.2802 383.897C49.2802 383.897 46.1342 381.538 44.0172 381.538C41.9012 381.538 39.5422 381.841 39.5422 381.841C39.5422 381.841 40.0252 382.446 40.0862 382.989C40.1472 383.534 39.9042 384.079 39.8452 384.624C39.7842 385.167 39.9663 385.53 39.9663 385.772C39.9663 386.012 39.5422 385.833 39.4822 386.135C39.4222 386.436 38.7563 389.643 38.8773 390.307C38.9983 390.973 39.1812 392.002 39.4232 392.121C39.6642 392.242 39.6642 392.303 39.7252 392.848C39.7862 393.393 39.6643 394.299 40.8143 394.723C41.9633 395.145 42.5073 395.024 42.5673 394.662C42.6283 394.299 43.9593 392.848 44.0803 392.605C44.2023 392.361 46.3173 391.275 46.8023 391.033C47.2843 390.791 48.3133 390.004 48.3743 389.279C48.4353 388.552 48.4352 388.252 48.4352 388.252C48.4352 388.252 48.7382 388.311 48.7972 387.768C48.8592 387.223 48.4352 386.497 48.4352 386.073C48.4342 385.651 49.7642 384.319 49.2802 383.897Z" stroke="black" stroke-width="0.25"/>
<path id="Vector_47" d="M47.0422 387.827C47.6882 387.751 48.4182 386.891 47.8932 386.315C47.5182 385.905 46.3502 385.706 45.8332 385.516C44.4912 385.028 43.0172 384.596 41.6592 384.198" stroke="black" stroke-width="0.25"/>
<path id="Vector_48" d="M40.9943 383.473C41.2643 382.996 41.3582 382.729 41.9012 382.506" stroke="black" stroke-width="0.25"/>
<path id="Vector_49" d="M48.0103 389.038C47.1893 389.038 46.5432 388.974 45.9672 389.538C45.4512 390.046 44.8823 390.636 44.4263 391.198C43.9963 391.727 43.5293 392.335 43.1843 392.923C42.8693 393.46 42.3192 394.109 42.3262 394.784" stroke="black" stroke-width="0.25"/>
</g>
<g id="NAV_L">
<path id="Vector_50" d="M33.3582 392.421C33.3582 392.421 33.0562 392.966 31.6652 392.3C30.2742 391.636 29.7913 391.333 29.6093 391.333C29.4283 391.333 27.7963 391.757 27.4323 391.878C27.0683 391.999 25.5572 391.939 24.1052 391.151C22.6532 390.366 22.1692 389.881 21.8672 389.7C21.5652 389.518 20.5383 389.458 20.4163 388.491C20.2963 387.522 20.5382 386.011 20.7192 385.647C20.9012 385.284 21.1433 384.983 21.4453 384.862C21.7483 384.741 22.2312 383.169 23.1382 382.682C24.0462 382.2 25.1342 381.776 26.1022 381.957C27.0702 382.138 28.7633 383.168 29.2473 383.531C29.7303 383.892 30.9402 385.525 31.5452 385.767C32.1512 386.009 32.5742 387.097 32.8162 387.4C33.0582 387.703 33.3603 387.521 33.6633 388.127C33.9663 388.731 34.5712 389.941 34.3892 390.606C34.2042 391.272 34.5682 392.481 33.3582 392.421Z" stroke="black" stroke-width="0.25"/>
<path id="Vector_51" d="M31.4813 389.762C31.4813 389.762 32.2982 388.727 31.1002 387.149C29.9032 385.571 27.7252 383.612 26.7462 383.393C25.7662 383.174 23.8612 382.848 23.1522 384.155C22.4462 385.462 22.2823 386.497 22.6633 387.094C23.0443 387.691 24.0243 389.869 25.2213 390.362C26.4203 390.85 27.5622 390.96 27.9982 390.905C28.4332 390.85 31.2093 390.524 31.4813 389.762Z" stroke="black" stroke-width="0.25"/>
<path id="Vector_52" d="M33.5402 390.305C33.2322 390.252 33.2512 389.877 32.9952 389.879C32.6312 389.883 32.6563 390.236 32.5253 390.496C32.2123 391.123 31.8703 391.32 31.1193 391.271" stroke="black" stroke-width="0.25"/>
</g>
<g id="CUN_L1">
<path id="Vector_53" d="M15.2473 402.153C15.2473 402.153 17.0602 401.911 17.3032 401.549C17.5452 401.186 18.1513 401.065 18.1513 400.762C18.1513 400.459 17.3643 398.826 17.3643 398.342C17.3643 397.86 16.8822 396.045 16.8822 395.319C16.8822 394.593 17.4863 393.02 17.4863 393.02C17.4863 393.02 17.1243 391.69 16.2163 390.842C15.3083 389.996 14.8852 389.391 13.6142 389.088C12.3442 388.787 10.9543 388.606 10.5913 388.606C10.2283 388.606 9.19926 388.303 8.89826 388.788C8.59726 389.273 8.35425 391.63 8.47425 393.202C8.59625 394.774 8.89826 398.343 8.65626 398.948C8.41526 399.553 8.53526 400.218 9.07926 400.641C9.62426 401.065 10.8943 401.549 11.9833 401.668C13.0693 401.792 14.1583 402.335 15.2473 402.153Z" stroke="black" stroke-width="0.25"/>
<path id="Vector_54" d="M17.1223 398.288C16.6663 398.27 16.0212 398.606 15.6082 398.466C15.0662 398.282 15.1863 397.507 15.0613 397.042C14.8003 396.065 14.7062 395.167 14.5342 394.136C14.1932 392.091 10.9202 392.29 9.49823 391.407C7.68923 390.286 10.4022 389.764 11.2522 389.628C12.0412 389.503 12.6303 389.101 13.3983 389.378C14.4473 389.753 15.8392 390.439 16.5162 391.347" stroke="black" stroke-width="0.25"/>
<path id="Vector_55" d="M9.68224 392.899C10.2962 392.856 10.7492 393.124 11.3622 393.19C11.9382 393.251 12.5912 393.223 13.1172 393.46C13.7922 393.767 14.2212 394.608 14.4012 395.259" stroke="black" stroke-width="0.25"/>
<path id="Vector_56" d="M16.8192 399.37C16.0612 399.151 14.7432 399.016 14.5212 398.042" stroke="black" stroke-width="0.25"/>
<path id="Vector_57" d="M12.4652 397.737C11.9792 397.944 9.41625 396.51 9.26025 397.618" stroke="black" stroke-width="0.25"/>
<path id="Vector_58" d="M11.9822 390.178C11.8542 390.469 11.6802 391.112 11.9202 391.387" stroke="black" stroke-width="0.25"/>
</g>
<g id="CUN_L3">
<path id="Vector_59" d="M44.8652 404.749C44.8652 404.749 45.7722 402.753 45.5922 402.452C45.4092 402.147 45.5302 401.182 45.7122 400.274C45.8932 399.366 45.5923 398.823 44.9263 398.46C44.2603 398.097 42.9902 398.097 41.9022 398.036C40.8142 397.975 38.5763 398.036 37.6693 398.157C36.7613 398.276 36.1562 398.399 36.0972 398.641C36.0362 398.883 37.6693 404.567 37.6693 404.87C37.6693 405.175 37.9113 405.597 37.9113 405.839C37.9113 406.081 38.2733 406.019 38.4553 405.9C38.6373 405.777 39.4833 405.537 40.2103 405.597C40.9353 405.656 42.9312 405.958 42.9312 405.958L44.0803 404.991C44.0803 404.991 44.6842 405.233 44.8652 404.749Z" stroke="black" stroke-width="0.25"/>
<path id="Vector_60" d="M45.1682 402.692C44.5222 403.446 44.2263 404.522 43.0493 404.34C42.0613 404.188 41.6012 403.61 41.4182 402.633C41.3352 402.19 41.3572 401.715 41.1292 401.35C40.8602 400.916 40.3492 400.77 39.9672 400.455C39.6482 400.191 39.2493 399.662 39.1793 399.246C39.0823 398.674 39.4603 398.432 39.8463 398.096" stroke="black" stroke-width="0.25"/>
<path id="Vector_61" d="M40.3903 402.753C39.4583 402.587 38.4282 402.452 37.8502 403.358" stroke="black" stroke-width="0.25"/>
</g>
<g id="CUN_L2">
<path id="Vector_62" d="M31.2273 405.444C31.2273 405.444 30.9243 406.11 29.8353 406.231C28.7483 406.352 26.6913 405.686 25.7833 405.504C24.8773 405.322 23.5463 399.154 23.7273 398.488C23.9083 397.824 23.9693 397.824 24.9983 397.824C26.0253 397.824 26.6313 397.943 27.1743 397.761C27.7203 397.579 28.8073 397.642 29.3523 397.761C29.8973 397.884 30.3812 397.824 30.3812 398.064C30.3812 398.306 30.1982 400.787 30.3812 401.753C30.5622 402.722 31.3483 404.778 31.3483 404.778C31.3483 404.778 31.5293 405.385 31.2273 405.444Z" stroke="black" stroke-width="0.25"/>
<path id="Vector_63" d="M30.8043 405.504C29.7993 405.459 29.0412 405.633 28.3972 404.645C27.8662 403.831 27.9592 402.885 27.9482 401.94C27.9422 401.43 27.8072 400.922 27.5522 400.471C27.2342 399.908 26.9562 400.121 26.4532 399.823C24.9012 398.893 27.4952 398.073 27.9622 397.762" stroke="black" stroke-width="0.25"/>
<path id="Vector_64" d="M27.2352 402.299C26.9552 401.986 26.7872 401.576 26.4512 401.332C26.1372 401.105 25.6462 401.115 25.3602 400.846" stroke="black" stroke-width="0.25"/>
<path id="Vector_65" d="M23.9083 398.247C24.7343 398.501 24.7683 400.849 24.8773 401.634C24.9703 402.312 24.9592 403.003 25.1172 403.677C25.2632 404.304 25.6523 404.859 25.7833 405.445" stroke="black" stroke-width="0.25"/>
</g>
<g id="MT1_L">
<path id="Vector_66" d="M0.806225 412.258C0.757225 412.848 0.578211 413.533 0.817211 414.008C1.08821 414.553 1.99723 415.369 1.99723 416.096C1.99723 416.823 2.45024 427.073 2.45024 427.344C2.45024 427.617 1.90623 435.147 1.81523 435.69C1.72523 436.237 0.999218 436.598 0.999218 436.961C0.999218 437.322 0.817217 441.406 1.36122 442.131C1.90622 442.858 2.72123 443.039 3.53923 443.039C4.35423 443.039 6.62421 443.764 6.89521 443.764C7.16621 443.764 8.43723 443.948 10.0702 442.858C11.7032 441.768 11.9752 441.497 11.9752 441.044C11.9752 440.591 11.7032 440.228 11.7032 440.228C11.7032 440.228 12.7922 437.324 12.7922 436.871C12.7922 436.418 11.8862 435.42 11.8862 435.42C11.8862 435.42 10.6152 435.783 10.0712 430.43C9.52721 425.078 9.34623 420.723 9.34623 420.723C9.34623 420.723 9.61724 418.094 10.1612 416.825C10.7062 415.554 11.3412 413.919 11.3412 413.919C11.3412 413.919 11.3412 412.737 11.3412 411.771L0.806225 412.258Z" stroke="black" stroke-width="0.25"/>
<path id="Vector_67" d="M11.3402 410.088C11.3402 409.494 11.3402 408.984 11.3402 408.881C11.3402 408.608 11.1582 408.065 10.8872 408.065C10.6152 408.065 10.0702 406.432 9.70723 406.706C9.70723 406.706 6.71322 408.882 5.89622 408.972C5.08022 409.064 1.72423 409.245 1.08723 408.972C0.453233 408.701 0.816237 409.699 0.816237 410.333C0.816237 410.413 0.81122 410.495 0.80522 410.579L11.3402 410.088Z" stroke="black" stroke-width="0.25"/>
<path id="Vector_68" d="M9.73623 407.309C9.70923 408.08 10.7242 408.532 10.6912 409.184C10.6582 409.838 9.16324 409.682 8.63424 409.743C7.10024 409.915 5.64124 409.694 4.23324 409.487" stroke="black" stroke-width="0.25"/>
<path id="Vector_69" d="M8.58821 415.219C8.21221 415.604 8.15022 416.633 8.04122 417.205C7.88922 418.01 7.86022 418.809 7.86122 419.646C7.86622 421.601 7.84724 423.544 8.04024 425.496C8.36124 428.744 8.43621 431.988 8.70921 435.236C8.74121 435.619 8.80124 436.004 8.82924 436.384" stroke="black" stroke-width="0.25"/>
<path id="Vector_70" d="M11.2492 440.44C11.3302 439.624 10.3892 438.811 9.86224 438.323C9.18624 437.692 8.44723 437.51 7.56023 437.583C6.49223 437.671 5.20322 438.06 4.17522 438.409C3.40622 438.673 2.06123 439.204 2.05523 440.198" stroke="black" stroke-width="0.25"/>
</g>
<g id="MT2_L">
<path id="Vector_71" d="M22.7412 442.249C22.6962 442.173 22.6553 442.093 22.6193 442.011C22.3773 441.468 22.4382 429.675 22.7402 426.771C23.0432 423.867 22.9822 421.085 22.9822 421.085C22.9822 421.085 23.4662 418.667 23.4662 418.485C23.4662 418.303 23.9492 417.577 23.9492 417.214C23.9492 416.853 24.7352 410.925 24.0092 410.564C24.0092 410.564 23.7672 410.441 23.7072 410.199C23.6462 409.959 23.4042 409.051 23.1622 409.113C22.9212 409.172 22.4972 408.687 22.3162 408.687C22.1332 408.687 21.4092 409.837 20.1382 410.078C18.8672 410.322 18.5053 410.019 17.5983 410.383C16.6923 410.744 16.3272 410.805 16.3272 410.805C16.3272 410.805 16.0252 412.014 16.0252 412.196C16.0252 412.378 16.5082 412.981 16.6292 413.286C16.7492 413.587 16.9912 414.919 17.0532 415.341C17.1132 415.765 17.2342 415.765 17.5362 416.37C17.8392 416.974 18.2623 420.179 18.2623 420.179L18.7462 438.142C18.7462 438.142 18.8062 440.38 18.7462 441.046C18.7262 441.259 18.6442 441.583 18.5432 441.927L22.7412 442.249Z" stroke="black" stroke-width="0.25"/>
<path id="Vector_72" d="M21.2892 420.903L21.6512 439.772" stroke="black" stroke-width="0.25"/>
<path id="Vector_73" d="M22.3182 408.868C22.3172 409.571 22.3853 409.729 22.8613 410.196C23.4653 410.788 23.7153 410.94 23.4213 411.774C23.1203 412.62 22.7932 414.727 24.0112 414.977" stroke="black" stroke-width="0.25"/>
<path id="Vector_74" d="M21.8942 409.592C21.9112 410.766 18.5202 410.863 17.7212 410.863" stroke="black" stroke-width="0.25"/>
<g id="MT2_L2">
<path id="Vector_75" d="M18.5463 443.044C18.3303 443.773 18.0232 444.583 18.0232 444.583L17.9622 445.429C17.9622 445.429 18.2052 447.124 18.3852 447.243C18.5682 447.364 18.2653 447.729 18.2053 448.151C18.1433 448.575 19.1112 449.965 19.9592 450.268C20.8062 450.571 21.1072 450.813 21.9542 450.51C22.8012 450.207 23.1022 450.026 23.1022 450.026C23.1022 450.026 23.9502 447.487 23.9502 447.124C23.9502 446.761 23.9502 444.522 23.6472 444.341C23.3892 444.187 23.0012 443.814 22.7412 443.368L18.5463 443.044Z" stroke="black" stroke-width="0.25"/>
<path id="Vector_76" d="M23.1033 444.583C22.9573 445.114 22.4363 445.55 22.1843 446.034C21.8013 446.772 22.1682 447.2 22.1872 447.962C22.0932 447.976 21.9992 447.976 21.9052 447.958C21.6472 447.134 19.3483 446.565 18.8093 447.243" stroke="black" stroke-width="0.25"/>
</g>
</g>
<g id="MT3_L">
<path id="Vector_77" d="M32.7493 439.835C32.6293 439.169 32.5682 432.335 32.8712 428.767C33.1732 425.199 33.3542 419.876 33.4752 418.97C33.6072 417.986 33.4662 416.849 33.6992 415.909C33.9332 414.956 34.3823 414.136 34.3833 413.102C34.3843 412.495 35.5312 409.534 34.8062 409.413C34.8062 409.413 34.9282 409.05 34.5042 408.989C34.0802 408.928 28.0933 410.743 28.0933 410.743C28.0933 410.743 27.6702 411.227 27.6702 411.409C27.6702 411.591 27.0042 413.466 27.6082 413.768C28.2132 414.069 28.2133 414.19 28.2133 414.493C28.2133 414.796 28.9993 428.888 28.8783 430.702C28.7583 432.516 29.3623 437.294 29.3623 437.718C29.3623 438.058 29.4793 440.044 29.4303 441.027L32.7493 439.835Z" stroke="black" stroke-width="0.25"/>
<path id="Vector_78" d="M31.2992 420.602L30.7542 434.936C30.7542 434.936 30.8732 436.165 30.9832 437.178" stroke="black" stroke-width="0.25"/>
<g id="MT3_L2">
<path id="Vector_79" d="M29.4323 442.706C29.4203 442.944 29.3993 443.124 29.3643 443.208C29.1823 443.632 28.4562 444.356 28.5172 444.538C28.5772 444.72 29.3643 445.505 29.3643 445.87C29.3643 446.231 29.4243 447.079 29.2423 447.261C29.0613 447.441 29.1823 448.046 29.9083 448.589C30.6343 449.136 32.0252 450.042 33.1132 449.073C34.2022 448.106 34.9282 445.446 34.6862 444.116C34.4442 442.784 34.1423 442.362 33.6583 442.3C33.1743 442.239 32.8723 442.179 32.7503 441.515L29.4323 442.706Z" stroke="black" stroke-width="0.25"/>
<path id="Vector_80" d="M33.5962 443.448C33.2542 444.114 32.8082 444.511 32.6912 445.264C32.6352 445.623 32.8073 446.807 32.3873 446.948C32.1293 447.032 31.3612 446.253 31.0602 446.153C30.5092 445.977 29.5142 445.934 29.4842 446.716" stroke="black" stroke-width="0.25"/>
</g>
</g>
<g id="MT4_L">
<path id="Vector_81" d="M43.1672 439.063C42.9982 438.862 42.8812 438.336 42.8812 436.75C42.8812 433.967 43.0622 426.951 43.7872 423.141C44.5142 419.33 44.9362 417.455 44.9362 417.455C44.9362 417.455 45.0562 416.004 44.8752 415.641C44.6932 415.278 44.6332 414.977 44.6932 414.674C44.7532 414.371 45.2372 413.584 45.6012 413.403C45.6012 413.403 45.8422 412.436 45.7822 412.012C45.7212 411.59 45.5402 410.198 45.4192 410.018C45.2982 409.836 44.8152 409.049 44.4512 409.112C44.0892 409.171 42.6972 409.776 41.1852 410.198C39.6732 410.622 39.3102 410.563 39.1292 410.682C38.9462 410.803 38.2212 412.496 38.0392 413.284C37.8582 414.069 38.7662 416.186 38.7052 416.729C38.6442 417.274 39.0672 421.75 39.0082 422.477C38.9462 423.202 38.9462 428.161 38.8872 428.645C38.8252 429.127 39.0682 434.391 39.3102 435.479C39.5522 436.569 39.8552 437.958 39.7342 438.684C39.7012 438.879 39.6462 439.159 39.5782 439.471L43.1672 439.063Z" stroke="black" stroke-width="0.25"/>
<path id="Vector_82" d="M42.0333 419.151C42.0333 419.151 40.8242 426.225 40.8242 426.589C40.8242 426.953 40.4622 430.097 40.6422 431.972C40.7632 433.222 40.8572 434.74 40.9962 435.99" stroke="black" stroke-width="0.25"/>
<path id="Vector_83" d="M39.3732 411.167C39.4632 412.112 39.7352 412.958 39.7352 413.948C39.7352 414.661 39.6832 416.186 38.9482 416.55" stroke="black" stroke-width="0.25"/>
<path id="Vector_84" d="M44.8162 409.473C44.7912 410.213 45.0222 410.912 45.0572 411.651C45.0882 412.284 44.8422 413.067 45.0572 413.647" stroke="black" stroke-width="0.25"/>
<g id="MT4_L2">
<path id="Vector_85" d="M39.5792 441.151C39.3912 441.991 39.0932 443.063 38.8272 443.329C38.2462 443.911 40.2912 445.255 39.7242 445.618C38.5362 446.372 41.0842 447.827 41.6692 447.864C42.6382 447.925 43.9682 447.864 44.4512 446.716C44.9352 445.568 45.2372 443.753 45.1782 443.027C45.1172 442.3 44.8752 441.273 44.5742 441.273C44.2712 441.273 43.9692 441.214 43.6052 440.97C43.4502 440.866 43.2942 440.898 43.1672 440.743L39.5792 441.151Z" stroke="black" stroke-width="0.25"/>
<path id="Vector_86" d="M44.8162 443.448C44.5052 444.229 43.5722 445.374 42.8232 445.794C42.3112 446.081 41.8742 446.042 41.3832 445.855C40.9632 445.693 40.5702 445.308 40.0992 445.628" stroke="black" stroke-width="0.25"/>
<path id="Vector_87" d="M43.1823 443.813C42.8873 444.301 42.0923 444.235 42.4083 445.073C42.5623 445.112 42.7263 445.085 42.8203 445.022" stroke="black" stroke-width="0.25"/>
</g>
</g>
<g id="MT5_L">
<path id="Vector_88" d="M53.5983 440.792C53.3713 440.392 53.1582 439.938 53.0102 439.351C52.7692 438.382 52.7692 435.722 52.9512 434.089C53.1312 432.456 54.5843 424.23 55.1273 422.839C55.6713 421.448 55.1272 421.751 55.7322 420.603C56.3362 419.453 55.7323 419.453 57.5463 417.093C59.3593 414.736 59.3002 412.861 59.1182 412.437C58.9362 412.013 58.8152 409.535 58.3912 409.05C58.3912 409.05 58.0902 408.204 57.4852 408.083C56.8802 407.962 56.3962 408.022 56.1542 408.386C55.9122 408.747 55.5502 409.534 55.5502 409.534C55.5502 409.534 55.0662 409.292 55.0052 409.473C54.9452 409.655 49.4422 414.553 48.8972 414.614C48.3532 414.675 48.6562 415.098 48.6562 415.641C48.6562 416.186 48.8382 417.336 48.7172 417.76C48.5962 418.182 48.5352 418.908 48.6562 419.393C48.7772 419.875 49.0182 420.784 48.9592 421.266C48.8972 421.75 48.7172 426.528 48.7172 427.252C48.7172 427.979 48.5352 432.033 48.4752 432.637C48.4142 433.242 48.5962 436.869 48.6572 437.414C48.7182 437.957 48.9603 439.955 48.9603 440.377C48.9603 440.695 48.9602 441.217 48.8832 441.611L53.5983 440.792Z" stroke="black" stroke-width="0.25"/>
<path id="Vector_89" d="M56.1552 409.231C55.9262 409.508 55.8633 410.045 55.3693 409.958" stroke="black" stroke-width="0.25"/>
<path id="Vector_90" d="M50.4712 416.065C51.1142 417.149 51.4522 419.516 50.3502 420.42" stroke="black" stroke-width="0.25"/>
<path id="Vector_91" d="M50.7132 436.991C50.9472 437.909 50.8262 440.587 51.9232 440.983" stroke="black" stroke-width="0.25"/>
<path id="Vector_92" d="M55.1272 411.288C54.9492 411.694 54.5142 411.981 54.3242 412.425C54.1492 412.835 54.1592 413.196 54.1592 413.648" stroke="black" stroke-width="0.25"/>
<path id="Vector_93" d="M55.0062 409.776C55.0062 409.776 53.7973 411.106 53.2523 411.651C52.7083 412.194 51.6802 412.979 50.8342 413.585C49.9862 414.19 49.1403 414.614 49.1403 414.614" stroke="black" stroke-width="0.25"/>
<g id="MT5_L2">
<path id="Vector_94" d="M49.1822 443.18C49.1472 443.309 49.1062 443.424 49.0542 443.51C48.8482 443.862 48.6072 443.846 48.5052 444.444C48.4042 445.044 48.8102 445.315 48.9702 445.628C49.1312 445.942 49.7592 445.622 49.1372 446.73C48.5162 447.841 48.2562 447.216 48.5162 447.841C48.7762 448.464 49.9652 449.698 52.0752 448.993C54.1852 448.288 54.2962 446.659 54.3362 446.055C54.3782 445.451 54.6922 443.518 54.3712 442.889C54.2452 442.643 54.1092 442.395 53.9812 442.125L49.1822 443.18Z" stroke="black" stroke-width="0.25"/>
<path id="Vector_95" d="M54.1583 444.225C53.7983 444.541 53.8442 445.391 53.5502 445.821C53.4012 446.04 53.1332 446.139 52.9842 446.339C52.8422 446.528 52.8583 446.89 52.6373 447.019C52.3453 447.187 51.5483 446.81 51.1973 446.751C50.5513 446.642 50.1342 446.731 49.4952 446.815" stroke="black" stroke-width="0.25"/>
<path id="Vector_96" d="M52.4793 444.837C52.5853 445.628 51.6662 445.542 51.6702 446.107C51.7262 446.128 51.7843 446.136 51.8463 446.128" stroke="black" stroke-width="0.25"/>
</g>
</g>
<g id="DPF1_L">
<path id="Vector_97" d="M0.694235 475.046C0.629235 475.751 0.603247 476.661 0.631247 476.942C0.677247 477.395 1.53922 478.258 1.94622 478.393C2.35522 478.53 2.58322 478.393 2.71822 478.348C2.85322 478.303 3.71524 479.618 3.80724 480.252C3.89724 480.889 4.16924 482.838 3.98824 482.93C3.80724 483.02 3.58022 483.201 3.58022 483.201C3.58022 483.201 3.12624 484.336 3.71624 485.152C4.30624 485.968 4.94123 486.65 5.75823 486.785C6.57323 486.922 8.43524 486.558 8.88824 485.56C9.34124 484.562 9.79423 482.476 9.47823 481.841C9.16023 481.204 8.52523 480.116 8.70623 479.345C8.88923 478.574 9.34223 477.849 9.56823 477.622C9.79523 477.393 10.1132 477.167 10.1132 477.167C10.1132 477.167 10.6572 477.122 10.5662 476.579C10.5662 476.579 10.6292 476.059 10.6582 475.468L0.694235 475.046Z" stroke="black" stroke-width="0.25"/>
<path id="Vector_98" d="M10.6582 473.79C10.6962 473.054 10.6812 472.208 10.4302 472.134C9.97723 471.997 9.93124 472.179 9.34124 472.134C8.75124 472.089 8.43524 471.679 6.98324 471.769C5.53124 471.861 5.16925 471.318 4.57925 471.271C3.98925 471.226 2.40122 471.953 2.08422 472.042C1.76722 472.134 1.04125 472.269 0.859245 472.495C0.791245 472.581 0.735237 472.934 0.694237 473.366L10.6582 473.79Z" stroke="black" stroke-width="0.25"/>
<path id="Vector_99" d="M9.77923 472.133C10.1722 472.248 10.0052 472.821 9.70425 472.977C9.39125 473.139 8.91224 473.131 8.55724 473.161C7.64324 473.237 7.17224 472.919 6.29824 472.749C5.47024 472.589 4.54124 472.509 3.68224 472.546C2.81424 472.581 1.91122 472.681 1.16222 472.237" stroke="black" stroke-width="0.25"/>
<path id="Vector_100" d="M9.76824 475.87C9.81624 476.181 10.1072 476.743 9.63223 476.823" stroke="black" stroke-width="0.25"/>
<path id="Vector_101" d="M8.52624 484.426C8.38224 485.422 6.86923 485.444 6.17223 485.254C5.75723 485.143 5.30722 485.012 4.90722 484.824C4.40522 484.588 4.36023 484.254 4.08123 483.836" stroke="black" stroke-width="0.25"/>
</g>
<g id="DPF2_L">
<path id="Vector_102" d="M18.4742 488.161C18.4912 488.421 18.5483 488.682 18.7053 488.682C19.0243 488.682 19.3872 488.59 19.4322 488.909C19.4782 489.225 19.8402 489.952 19.6592 490.134C19.4782 490.316 19.2972 490.632 19.2972 490.632C19.2972 490.632 19.1152 492.312 19.6592 492.81C20.2032 493.31 20.5202 493.581 20.9302 493.581C21.3382 493.581 22.3352 492.854 22.5632 492.267C22.7902 491.675 22.6992 490.408 22.5182 490.134C22.3352 489.863 21.9732 489.816 22.2902 489.363C22.6082 488.91 23.0162 488.549 23.0162 488.549L18.4742 488.161Z" stroke="black" stroke-width="0.25"/>
<path id="Vector_103" d="M23.0153 486.866L23.2423 486.593C23.2423 486.593 23.6063 486.277 23.3333 486.05C23.0623 485.823 22.4723 485.234 21.2473 485.279C20.0223 485.324 19.7053 485.142 19.2063 485.416C18.7063 485.687 18.4793 485.961 18.4793 485.961C18.4793 485.961 18.4583 486.223 18.4743 486.481L23.0153 486.866Z" stroke="black" stroke-width="0.25"/>
<path id="Vector_104" d="M23.1072 486.413C22.4992 486.632 21.6482 485.96 21.0092 485.911C20.5802 485.878 20.1962 485.936 19.7952 486.016C19.4682 486.082 19.0853 486.221 18.7523 486.094" stroke="black" stroke-width="0.25"/>
<path id="Vector_105" d="M22.0643 492.174C21.4203 492.319 20.6662 493.123 20.1122 492.311" stroke="black" stroke-width="0.25"/>
</g>
<g id="DPF3_L">
<path id="Vector_106" d="M28.8182 485.999C28.8372 486.042 28.8562 486.083 28.8782 486.12C29.0602 486.436 29.9213 486.755 30.0123 486.936C30.1043 487.118 30.4212 487.707 30.1042 487.887C29.7852 488.069 29.9213 488.069 29.9213 488.252C29.9213 488.432 29.7392 489.52 30.1042 489.928C30.4662 490.338 30.3302 490.928 31.1912 490.928C32.0542 490.928 32.5972 491.11 32.8242 490.383C33.0522 489.658 33.0522 488.205 32.9612 488.026C32.8702 487.842 32.5983 487.118 32.5983 487.118C32.5983 487.118 32.5082 486.618 32.9152 486.347C33.1052 486.222 33.2852 486.044 33.4242 485.894L28.8182 485.999Z" stroke="black" stroke-width="0.25"/>
<path id="Vector_107" d="M33.4222 484.213C33.5802 484.037 33.6862 483.895 33.6862 483.895C33.6862 483.895 34.2753 483.079 33.4583 482.942C32.6433 482.807 31.5083 482.626 30.9633 482.715C30.4203 482.807 29.1503 483.305 28.8773 483.442C28.6373 483.563 28.6793 484.001 28.8173 484.319L33.4222 484.213Z" stroke="black" stroke-width="0.25"/>
<path id="Vector_108" d="M32.2792 490.02C31.4362 490.211 31.1352 490.502 30.4202 489.885" stroke="black" stroke-width="0.25"/>
</g>
<g id="DPF4_L">
<path id="Vector_109" d="M38.4393 480.501C38.4843 480.704 38.5552 480.862 38.6392 480.878C38.8662 480.923 39.1373 480.651 39.3643 481.013C39.5923 481.376 39.7283 482.101 39.5463 482.148C39.3643 482.193 39.0932 482.375 39.1382 482.738C39.1842 483.101 39.3202 484.326 40.3632 484.552C41.4072 484.779 42.6333 484.644 42.6763 484.052C42.7223 483.464 42.9942 482.693 42.8132 482.466C42.6322 482.237 42.3592 482.237 42.3592 482.237C42.3592 482.237 42.1322 482.01 42.5422 481.512C42.9492 481.012 43.5842 480.741 43.5842 480.741L43.7202 480.514L38.4393 480.501Z" stroke="black" stroke-width="0.25"/>
<path id="Vector_110" d="M43.7183 478.835C43.7183 478.835 43.8552 477.972 43.3112 477.927C42.7662 477.882 42.0853 477.429 41.3613 477.429C40.6343 477.429 38.7292 477.611 38.5032 477.837C38.3592 477.98 38.3612 478.47 38.4402 478.819L43.7183 478.835Z" stroke="black" stroke-width="0.25"/>
<path id="Vector_111" d="M41.9943 483.372C41.4713 483.665 40.0062 484.546 39.5452 483.78" stroke="black" stroke-width="0.25"/>
</g>
<g id="DPF5_L">
<path id="Vector_112" d="M48.5922 480.231C48.6482 480.678 48.7412 481.329 48.9092 481.329C49.1362 481.329 49.6802 481.329 49.8162 481.374C49.9522 481.419 50.1783 481.872 49.9523 482.009C49.7263 482.146 49.6812 482.372 49.6812 482.372C49.6812 482.372 49.7723 484.368 50.6323 484.503C51.4943 484.64 52.3112 483.097 52.3112 482.69C52.3112 482.28 52.3112 481.645 52.3112 481.645C52.3112 481.645 51.9032 481.69 51.8582 481.51C51.8122 481.328 51.6313 480.875 52.0853 480.692C52.5393 480.51 53.1282 480.421 53.0832 480.647C53.0832 480.647 53.2652 480.399 53.3542 480.12L48.5922 480.231Z" stroke="black" stroke-width="0.25"/>
<path id="Vector_113" d="M53.3542 478.44C53.4462 478.163 53.4462 477.856 53.0832 477.743C52.3572 477.516 51.4502 477.153 51.1332 477.153C50.8162 477.153 48.5022 477.924 48.5472 478.196C48.5592 478.266 48.5732 478.397 48.5932 478.551L53.3542 478.44Z" stroke="black" stroke-width="0.25"/>
<path id="Vector_114" d="M51.6312 483.188C51.0082 483.624 50.6132 483.448 50.3602 482.78" stroke="black" stroke-width="0.25"/>
</g>
<g id="IPF2_L">
<path id="Vector_115" d="M18.5602 476.608C18.7022 476.79 18.8032 476.846 18.8032 476.846C18.8032 476.846 19.4393 479.114 19.2573 479.522C19.0753 479.93 18.7582 480.249 18.7582 480.249C18.7582 480.249 18.1232 480.792 18.3502 481.653C18.5772 482.516 19.3023 483.196 21.0723 482.833C22.8413 482.472 23.7023 482.425 23.4763 481.653C23.2483 480.883 22.9312 480.294 22.9312 480.294C22.9312 480.294 22.3873 480.157 22.3873 479.476C22.3873 478.796 21.9322 477.345 22.2512 476.755C22.3692 476.534 22.4713 476.357 22.5493 476.222L18.5602 476.608Z" stroke="black" stroke-width="0.25"/>
<path id="Vector_116" d="M22.6193 474.682C22.7493 474.459 22.8192 474.354 22.8192 474.354C22.8192 474.354 23.2272 473.309 22.5922 473.038C21.9572 472.767 21.8653 472.722 21.0053 472.811C20.1423 472.901 19.2802 472.629 19.0532 472.629C18.8272 472.629 17.8292 473.082 18.1472 474.08C18.3062 474.58 18.4863 474.885 18.6283 475.066L22.6193 474.682Z" stroke="black" stroke-width="0.25"/>
<path id="Vector_117" d="M22.9762 482.153C22.2592 482.098 21.7542 481.405 20.9832 481.823C20.6122 482.026 20.6092 482.225 20.1642 482.243C19.8542 482.257 19.5472 482.104 19.2582 482.29" stroke="black" stroke-width="0.25"/>
<path id="Vector_118" d="M22.5023 473.174C22.6623 474.01 21.2043 473.5 20.7783 473.481C20.3213 473.46 20.0172 473.374 19.5632 473.547C19.1392 473.709 18.7502 473.854 18.3292 473.945" stroke="black" stroke-width="0.25"/>
</g>
<g id="IPF3_L">
<path id="Vector_119" d="M28.7523 474.276C28.8503 474.579 28.9982 474.87 29.2132 475.028C29.7132 475.391 30.1662 476.751 29.9852 477.385C29.8022 478.022 29.6672 478.565 29.3942 478.701C29.1232 478.838 28.6232 480.424 29.0322 480.742C29.4392 481.06 30.8913 481.287 31.0723 481.06C31.2553 480.831 31.0272 480.742 31.9802 480.831C32.9322 480.923 33.5222 481.013 33.5222 480.333C33.5222 479.653 33.7042 478.653 33.2502 478.292C32.7972 477.929 32.6602 478.384 32.5692 477.339C32.4782 476.296 32.7052 475.435 32.7972 475.161C32.8882 474.89 32.8883 474.436 33.1143 474.165L28.7523 474.276Z" stroke="black" stroke-width="0.25"/>
<path id="Vector_120" d="M33.2542 472.135C33.2542 472.135 33.2092 470.955 32.8922 470.865C32.5752 470.773 31.8483 470.502 31.0333 470.683C30.2163 470.865 29.7182 470.683 29.5812 470.728C29.4452 470.773 28.7192 471.001 28.7192 471.273C28.7192 471.427 28.7632 471.845 28.8932 472.244L33.2542 472.135Z" stroke="black" stroke-width="0.25"/>
<path id="Vector_121" d="M33.0232 480.471C32.5042 480.094 31.9113 479.596 31.2913 479.916C30.8983 480.119 30.7852 480.162 30.3472 480.24C29.9782 480.306 29.5392 480.428 29.2602 480.697" stroke="black" stroke-width="0.25"/>
<path id="Vector_122" d="M32.7562 471.229C32.1082 471.799 31.5202 471.403 30.7682 471.284C30.3912 471.223 30.1552 471.221 29.8112 471.374C29.5122 471.505 29.2442 471.737 28.9462 471.456" stroke="black" stroke-width="0.25"/>
</g>
<g id="IPF4_L">
<path id="Vector_123" d="M39.0732 471.137L39.0723 471.139C39.0123 471.375 39.3222 471.678 39.3892 471.91C39.4772 472.217 39.6853 472.771 39.6613 473.088C39.6193 473.647 39.0092 473.803 38.8682 474.289C38.7402 474.732 38.8582 475.359 39.2192 475.662C39.6992 476.066 40.5132 475.705 41.1132 475.674C41.7232 475.643 42.2512 475.955 42.8372 475.856C43.2202 475.79 43.2353 475.71 43.4373 475.366C43.9953 474.413 43.6743 473.921 43.1923 473.001C43.0223 472.677 42.7223 472.216 42.9763 471.862C43.1893 471.569 43.4312 471.608 43.5872 471.307L39.0732 471.137Z" stroke="black" stroke-width="0.25"/>
<path id="Vector_124" d="M43.5872 469.067C43.6112 469.02 43.6342 468.965 43.6542 468.897C43.6622 468.87 44.0512 467.538 43.1542 467.583C42.2482 467.628 41.7482 467.583 40.8862 467.718C40.0252 467.855 39.7512 467.947 39.7512 467.947C39.7512 467.947 39.1643 468.535 39.0723 468.898L43.5872 469.067Z" stroke="black" stroke-width="0.25"/>
<path id="Vector_125" d="M42.9282 475.356C42.6242 475.251 42.5432 474.776 42.2482 474.62C42.0292 474.503 41.4992 474.472 41.2502 474.538C40.9152 474.628 40.7012 474.755 40.3322 474.802C39.9712 474.847 39.6212 474.925 39.3452 475.175" stroke="black" stroke-width="0.25"/>
<path id="Vector_126" d="M43.2913 468.081C43.0563 468.696 42.0603 468.528 41.5773 468.433C40.8493 468.29 40.2442 468.488 39.5712 468.673" stroke="black" stroke-width="0.25"/>
</g>
<g id="IPF5_L">
<path id="Vector_127" d="M48.7732 472.057C48.9102 472.418 49.2723 472.692 49.0903 473.19C48.9093 473.69 48.9542 473.825 48.9092 474.46C48.8632 475.097 49.8162 475.776 50.4062 475.55C50.9962 475.324 50.9052 475.097 51.4492 475.323C51.9932 475.549 52.3102 475.956 52.8102 475.594C53.3082 475.231 53.8072 473.551 53.5362 473.369C53.5362 473.369 52.9913 472.51 53.2183 472.283C53.3323 472.17 53.5703 472.021 53.7443 471.863L48.7732 472.057Z" stroke="black" stroke-width="0.25"/>
<path id="Vector_128" d="M53.7443 469.624C53.9213 469.466 54.0353 469.294 53.8983 469.136C53.6273 468.818 53.1723 468.32 52.7193 468.275C52.2653 468.23 51.1312 468.865 50.6312 468.773C50.1332 468.683 48.9533 468.591 48.9533 468.591C48.9533 468.591 48.6363 469.454 48.7713 469.816L53.7443 469.624Z" stroke="black" stroke-width="0.25"/>
<path id="Vector_129" d="M52.5842 475.096C52.0102 474.565 51.8052 474.631 51.0762 474.676C50.5412 474.709 49.8853 474.211 49.4083 474.596" stroke="black" stroke-width="0.25"/>
<path id="Vector_130" d="M52.8112 468.635C53.0922 469.182 51.3323 468.989 51.0413 469.053C50.3963 469.198 49.7052 469.655 49.0452 469.272" stroke="black" stroke-width="0.25"/>
</g>
<g id="PPF5_L">
<path id="Vector_131" d="M48.9932 455.331C49.2012 455.606 49.3812 455.88 49.4452 456.089C49.6272 456.679 49.9442 458.314 49.8082 459.038C49.6722 459.765 49.0822 463.167 48.7192 463.573C48.3572 463.983 48.5832 466.159 48.7642 466.114C48.9462 466.069 52.6202 465.932 52.9832 465.479C53.3462 465.026 52.9832 463.075 52.9832 463.075C52.9832 463.075 52.1672 461.397 52.3022 460.536C52.4392 459.675 52.8472 457.315 53.2092 456.589C53.4562 456.097 53.9772 455.265 54.2402 454.757L48.9932 455.331Z" stroke="black" stroke-width="0.25"/>
<path id="Vector_132" d="M54.3823 452.446C54.5063 452.208 54.5732 452.042 54.5292 452.01C54.5292 452.01 53.9852 450.559 53.7582 450.559C53.5312 450.559 52.1702 450.422 51.5352 450.741C50.8992 451.057 50.5833 451.149 50.2653 451.057C49.9473 450.967 49.1302 450.651 48.7682 450.741C48.4052 450.831 48.1323 451.557 48.2233 451.831C48.2823 452.005 48.7542 452.519 49.1302 453.019L54.3823 452.446Z" stroke="black" stroke-width="0.25"/>
<path id="Vector_133" d="M53.2602 450.741C53.8952 450.762 53.8412 451.587 53.5392 451.966C53.2152 452.376 52.1072 452.661 51.5612 452.722C50.8812 452.796 48.6192 451.89 48.6862 451.021C48.7362 451.011 48.7683 450.988 48.8143 450.968" stroke="black" stroke-width="0.25"/>
<path id="Vector_134" d="M52.2582 465.297C51.7092 465.338 51.2912 464.93 50.7602 464.934C50.2172 464.94 49.4373 465.268 48.9473 465.479" stroke="black" stroke-width="0.25"/>
<path id="Vector_135" d="M51.8502 456.27C51.8502 456.27 51.3062 459.583 51.3062 460.354C51.3062 461.125 51.6683 462.395 51.9863 462.94" stroke="black" stroke-width="0.25"/>
</g>
<g id="PPF4_L">
<path id="Vector_136" d="M38.6942 453.489C38.8302 453.897 39.6472 454.987 39.7382 455.303C39.8292 455.621 40.2823 458.297 40.1923 459.567C40.1013 460.838 39.7382 462.335 39.5562 462.698C39.3752 463.059 39.3292 463.786 39.3292 463.786C39.3292 463.786 39.2843 465.419 39.6923 465.556C40.1003 465.693 40.9622 465.646 41.5962 465.419C42.2322 465.192 43.3212 465.464 43.8202 465.148C44.3182 464.83 43.6382 462.789 43.6382 462.789C43.6382 462.789 43.3212 462.473 43.0472 461.428C42.7762 460.385 42.5042 457.528 42.8202 456.53C43.1372 455.532 43.2742 455.216 43.5472 454.669C43.7582 454.249 44.1852 453.829 44.3672 453.659L38.6942 453.489Z" stroke="black" stroke-width="0.25"/>
<path id="Vector_137" d="M44.3693 451.417C44.4243 451.368 44.4562 451.339 44.4562 451.339L44.7733 450.659C44.7733 450.659 45.0452 449.706 44.4562 449.661C43.8672 449.616 42.0073 449.434 41.4163 449.526C40.8273 449.616 39.1493 449.253 38.9223 449.571C38.6943 449.887 38.5602 450.841 38.6942 451.249L44.3693 451.417Z" stroke="black" stroke-width="0.25"/>
<path id="Vector_138" d="M44.4102 449.842C43.5792 450.453 42.7853 450.516 41.7443 450.467C41.3113 450.447 39.2422 450.27 39.2462 449.713C39.3062 449.703 39.3613 449.711 39.4213 449.705" stroke="black" stroke-width="0.25"/>
<path id="Vector_139" d="M43.1403 464.829C42.7683 463.466 40.4982 464.284 40.1472 465.284" stroke="black" stroke-width="0.25"/>
<path id="Vector_140" d="M42.0073 454.079C42.0073 454.079 41.3723 456.573 41.8253 459.206C42.2793 461.835 42.5062 462.651 42.5062 462.651" stroke="black" stroke-width="0.25"/>
</g>
<g id="PPF3_L">
<path id="Vector_141" d="M28.5593 455.458C28.6143 455.78 28.6822 456.067 28.7562 456.229C28.9832 456.729 29.3922 456.911 29.5272 457.5C29.6622 458.089 29.7093 460.766 29.6633 461.219C29.6183 461.674 29.4822 464.532 29.2562 464.848C29.0282 465.166 28.9382 465.393 28.9382 465.393C28.9382 465.393 28.8032 468.024 29.1202 468.069C29.4372 468.116 30.3912 468.024 30.7532 467.932C31.1162 467.842 32.2053 467.797 32.7493 467.75C33.2933 467.705 33.7473 466.844 33.7023 466.346C33.6563 465.846 32.6122 464.305 32.6122 463.76C32.6122 463.215 32.3852 460.629 32.4762 459.449C32.5672 458.271 32.7932 457.861 32.9752 457.455C33.1572 457.047 33.4293 456.637 33.4293 456.637C33.4293 456.637 33.5202 456.184 33.5652 455.957C33.6112 455.73 33.7922 455.686 33.9282 455.549C33.9842 455.492 34.0802 455.356 34.1742 455.217L28.5593 455.458Z" stroke="black" stroke-width="0.25"/>
<path id="Vector_142" d="M34.1743 452.417C34.3043 452.224 34.4263 452.024 34.4263 452.024C34.4263 452.024 34.2902 450.526 33.9282 450.573C33.5652 450.618 32.3402 450.755 31.8422 450.8C31.3422 450.847 31.3873 450.982 30.9793 450.982C30.5713 450.982 29.9813 450.664 29.9813 450.664C29.9813 450.664 28.6213 450.709 28.4843 450.982C28.3933 451.166 28.4453 451.988 28.5593 452.658L34.1743 452.417Z" stroke="black" stroke-width="0.25"/>
<path id="Vector_143" d="M33.8822 451.171C33.9692 452.386 31.8032 451.849 31.0692 451.851C30.6242 451.853 30.1892 451.847 29.7562 451.808C29.5642 451.79 28.9143 451.816 28.7883 451.683C28.6423 451.527 28.7002 451.234 28.9832 451.261" stroke="black" stroke-width="0.25"/>
<path id="Vector_144" d="M32.9813 467.762C32.7413 466.992 31.9713 466.866 31.2103 466.948C30.4383 467.03 29.9502 467.553 29.4872 468.081" stroke="black" stroke-width="0.25"/>
<path id="Vector_145" d="M31.8452 456.346C31.8452 456.346 31.1193 460.43 31.3463 462.153C31.5733 463.878 31.7542 465.692 31.7542 465.692" stroke="black" stroke-width="0.25"/>
</g>
<g id="PPF2_L">
<path id="Vector_146" d="M17.0702 456.354C17.0882 456.452 17.1152 456.53 17.1542 456.577C17.3812 456.847 18.1053 457.393 18.3773 458.118C18.6503 458.845 19.0592 464.241 18.9232 465.104C18.7862 465.965 18.5142 467.19 18.4242 467.553C18.3322 467.916 18.1962 468.823 18.1962 468.823C18.1962 468.823 18.0602 469.186 18.1962 469.368C18.3322 469.55 18.8772 470.093 19.4672 470.093C20.0572 470.093 20.3293 470.048 21.1453 470.003C21.9613 469.958 22.5963 469.958 23.0513 469.685C23.5043 469.414 23.5042 468.55 23.1862 467.781C22.8692 467.01 21.7813 464.652 21.7363 462.429C21.6903 460.204 21.9172 458.118 21.9172 458.118C21.9172 458.118 22.2802 457.483 22.5972 457.167C22.7572 457.007 22.9492 456.78 23.1022 456.565L17.0702 456.354Z" stroke="black" stroke-width="0.25"/>
<path id="Vector_147" d="M23.1012 453.764C23.2542 453.549 23.3693 453.346 23.3693 453.231C23.3693 453.231 23.5502 451.917 23.2322 451.827C22.9142 451.735 22.0072 451.735 21.2372 451.87C20.4652 452.007 19.6493 452.097 19.0593 452.054C18.4693 452.007 17.9242 451.781 17.9242 451.781C17.9242 451.781 17.2902 451.644 17.1982 451.918C17.1232 452.145 16.9862 453.086 17.0702 453.557L23.1012 453.764Z" stroke="black" stroke-width="0.25"/>
<path id="Vector_148" d="M22.7312 452.475C22.3772 453.157 20.6662 453.03 20.0072 453.065C19.6172 453.086 17.0382 453.28 17.4232 452.475" stroke="black" stroke-width="0.25"/>
<path id="Vector_149" d="M22.6843 469.546C22.3503 469.489 22.2182 469.081 21.9592 468.878C21.6632 468.646 21.3233 468.624 20.9603 468.593C20.2153 468.532 19.1473 468.788 18.7363 469.456" stroke="black" stroke-width="0.25"/>
<path id="Vector_150" d="M20.3682 456.669C20.3682 456.669 20.1862 460.571 20.5502 462.976C20.9122 465.378 21.4572 467.511 21.4572 467.511" stroke="black" stroke-width="0.25"/>
</g>
<g id="PPF1_L">
<path id="Vector_151" d="M0.182243 450.479C0.198243 451.014 0.206243 451.549 0.225243 452.083C0.225243 452.083 1.31423 453.354 1.76723 454.353C2.22023 455.349 3.40022 458.164 3.21822 459.523C3.03722 460.884 1.76723 464.15 1.58523 464.785C1.36523 465.553 1.75023 466.316 1.85323 467.06C1.93623 467.66 2.08124 467.906 2.72024 468.04C3.08524 468.118 3.49025 468.269 3.86825 468.198C4.17625 468.143 4.39925 467.94 4.69125 467.854C5.35325 467.666 6.16624 467.688 6.84524 467.688C7.71424 467.688 9.02923 468.034 9.84023 467.768C10.2452 467.635 10.2782 467.303 10.3402 466.87C10.4802 465.891 10.5452 464.847 10.1952 463.913C9.88224 463.079 9.50825 462.267 9.20425 461.429C8.84225 460.431 8.57025 458.163 8.84225 456.62C9.11425 455.079 9.47824 453.807 9.93124 453.444C10.3842 453.081 10.3842 451.358 10.3842 451.358L10.3952 451.178L0.182243 450.479Z" stroke="black" stroke-width="0.25"/>
<path id="Vector_152" d="M10.1132 446.969C9.92424 447.586 8.41624 447.514 7.88824 447.514C7.48924 447.514 7.03324 447.578 6.63924 447.516C6.27424 447.459 5.89022 447.274 5.54522 447.229C4.41122 447.086 0.778245 447.944 0.540245 446.334" stroke="black" stroke-width="0.25"/>
<path id="Vector_153" d="M9.75024 467.596C9.40424 467.514 8.80722 467.397 8.53722 467.19C8.25322 466.969 8.26025 466.618 8.05325 466.374C7.64825 465.899 6.59023 465.696 5.99023 465.645C5.04323 465.565 4.68125 465.92 4.16125 466.588C3.98825 466.807 3.77523 467.041 3.53823 467.199C3.23623 467.4 2.85722 467.455 2.58422 467.687" stroke="black" stroke-width="0.25"/>
<path id="Vector_154" d="M7.11921 453.626C7.11921 453.626 7.02823 457.481 6.98323 459.114C6.93623 460.749 7.39122 463.333 7.39122 463.333" stroke="black" stroke-width="0.25"/>
<path id="Vector_155" d="M9.79522 448.422C9.79522 448.422 7.75424 448.422 6.21224 448.467C4.67024 448.512 1.22323 447.83 0.904228 447.696L0.181236 447.678C0.169236 447.307 0.155234 446.936 0.129234 446.565C0.583234 446.196 0.81323 445.784 1.44323 445.665C2.08723 445.546 2.64525 445.552 3.28625 445.708C4.01425 445.886 5.05223 446.011 5.66723 446.472C6.02923 446.745 6.57322 446.835 7.57122 446.562C8.57022 446.291 9.20422 446.199 9.56722 446.291L10.4742 447.018L10.3942 448.379L9.79522 448.422Z" stroke="black" stroke-width="0.25"/>
</g>
<g id="CAL_L">
<path id="Vector_156" d="M39.1193 375.991C39.7023 375.788 40.0482 374.854 39.7822 374.264C39.4442 373.516 38.6993 373.534 38.1243 373.274C37.2193 372.866 37.4413 372.682 37.2363 371.727C37.0743 370.965 36.8222 370.221 36.6492 369.459C36.3422 368.096 35.9962 367.066 34.7852 366.26C33.6522 365.508 31.8192 365.018 30.5012 365.194" stroke="black" stroke-width="0.25"/>
<path id="Vector_157" d="M46.4653 362.585C46.0613 361.921 45.4442 361.312 45.1252 360.567C44.8182 359.856 44.8613 359.118 44.2023 358.547C43.1463 357.633 41.2933 356.955 39.8463 357.211C38.2933 357.486 38.2672 359.568 37.1752 360.338C36.4982 360.817 35.3842 360.709 34.9202 361.449C34.3612 362.338 35.1913 362.892 35.7423 363.402C37.0383 364.603 37.4102 366.076 38.9802 367.006C40.4122 367.852 42.1592 368.219 43.8112 368.174C44.6682 368.151 45.5323 368.008 46.3333 367.694C47.3703 367.284 48.5402 366.714 48.1342 365.428C47.8032 364.372 47.0323 363.514 46.4653 362.585Z" stroke="black" stroke-width="0.25"/>
<path id="Vector_158" d="M45.5612 348.411C45.2052 348.686 45.2472 349.776 45.0842 350.309C44.8572 351.057 44.5723 351.721 44.2233 352.432C43.7133 353.473 43.2412 355.395 42.2042 356.032" stroke="black" stroke-width="0.25"/>
<path id="Vector_159" d="M39.5723 346.325C38.8123 346.272 38.0402 346.557 37.3052 346.325" stroke="black" stroke-width="0.25"/>
<path id="Vector_160" d="M47.5572 346.417C46.5032 346.999 45.8123 347.636 44.4783 347.505C43.4783 347.407 42.4012 346.634 41.4792 346.325" stroke="black" stroke-width="0.25"/>
<path id="Vector_161" d="M48.2822 372.18C47.3742 372.18 46.4193 371.936 46.1963 372.996C46.0493 373.697 46.4102 374.838 46.5582 375.537" stroke="black" stroke-width="0.25"/>
<path id="Vector_162" d="M46.4683 370.276C45.8953 368.911 41.3062 369.198 39.9372 369.186" stroke="black" stroke-width="0.25"/>
<path id="Vector_163" d="M37.8502 367.372C37.1592 366.12 35.4842 364.169 34.2212 363.561" stroke="black" stroke-width="0.25"/>
<path id="Vector_164" d="M48.8622 344.428C48.8552 344.721 48.8232 345.006 48.7132 345.274C48.6152 345.506 48.5172 345.729 48.3422 345.924C48.1652 346.123 47.8532 346.197 47.7082 346.385" stroke="black" stroke-width="0.25"/>
<path id="Vector_165" d="M41.2363 346.294C40.9713 346.167 40.4042 346.243 40.0872 346.206" stroke="black" stroke-width="0.25"/>
<path id="Vector_166" d="M37.3353 345.993C37.2353 345.69 37.3472 345.237 37.4562 344.964" stroke="black" stroke-width="0.25"/>
<path id="Vector_167" d="M44.8403 343.479C44.1543 343.557 43.5012 343.745 42.8122 343.776C41.7842 343.823 40.7452 343.87 39.7302 343.727C39.0262 343.629 38.1322 343.487 37.6542 344.114C37.0912 344.854 36.8272 345.971 36.5622 346.852C36.1262 348.303 36.4163 350.625 36.8533 351.206C37.2883 351.786 38.7392 353.237 38.1592 354.11C37.5782 354.979 38.0142 355.126 38.1592 356.141C38.3042 357.159 38.0143 358.028 37.7233 358.608C37.4323 359.19 37.4322 359.19 36.7062 359.479C35.9802 359.768 35.1092 360.495 34.3842 360.932C33.6582 361.366 33.0772 361.366 32.2072 361.657C31.3362 361.948 29.5952 363.399 29.3042 364.126C29.0142 364.851 28.7233 365.866 28.8693 366.591C29.0143 367.318 29.7393 368.771 30.9003 369.495C32.0613 370.222 34.6732 371.673 35.1092 371.817C35.5452 371.963 35.4003 373.559 35.4003 373.995C35.4003 374.431 36.7062 375.157 36.7062 375.157C36.7062 375.157 37.1423 376.753 37.7233 376.897C37.9753 376.961 38.2122 376.991 38.4422 376.893C39.2682 377.86 41.0903 377.502 42.2023 377.641C42.9553 377.733 43.6123 378.077 44.4003 378.047C45.7903 377.994 47.0412 377.352 48.3312 376.906C48.9162 376.703 49.3253 376.385 49.5903 375.963C49.8933 375.479 50.0052 374.861 49.9722 374.121C49.9432 373.453 49.5772 372.775 49.4812 372.107C49.3362 371.089 48.6102 369.783 49.1912 368.043C49.7722 366.303 50.3522 365.285 50.7892 364.416C51.2232 363.543 50.6432 360.785 50.2072 359.914C49.7722 359.043 50.7892 356.285 50.7892 355.125C50.7892 353.963 50.3522 352.512 49.9172 351.061C49.5742 349.916 49.6722 349.204 49.9412 348.131C50.2062 347.078 50.0152 345.951 49.6012 344.963C49.4662 344.639 49.1992 343.84 48.8542 343.684C48.3022 343.436 47.7452 343.541 47.1602 343.541C46.6002 343.541 46.0812 343.467 45.5292 343.449C45.2932 343.442 45.0653 343.456 44.8403 343.479Z" stroke="black" stroke-width="0.25"/>
<path id="Vector_168" d="M37.6932 341.997C38.2692 341.183 39.0992 340.476 40.3392 340.147C42.5052 339.579 45.0512 338.973 47.1182 340.213C47.6032 340.504 48.5522 341.141 48.6542 341.75C48.7922 342.561 47.7482 342.283 47.2432 342.283C46.3422 342.283 45.4832 342.353 44.6202 342.574C43.3312 342.904 42.4063 342.369 41.1503 343.095L40.4772 342.841C39.6032 342.368 38.5703 342.736 37.7233 342.282L37.5872 342.134L37.6932 341.997Z" stroke="black" stroke-width="0.25"/>
</g>
</g>
</svg>
